<svg xmlns="http://www.w3.org/2000/svg" width="600" viewBox="0 0 600 92.8">
  <g id="knorr-bremse-vector-logo.inline" transform="translate(-25.8 -281.1)">
    <path id="Pfad_25" data-name="Pfad 25" d="M47,304.6l-9,17.8h-.1V304.6H25.8V351H37.9V338.7l2.5-3.9L47.5,351H61.3L48.1,324.8l11.7-20.2Z" fill="#000000"/>
    <path id="Pfad_26" data-name="Pfad 26" d="M62.4,351H73.7V322.3h.1L81.9,351H95.1V304.6H83.8v28.5h-.1l-7.8-28.5H62.4Z" fill="#000000"/>
    <g id="Gruppe_39" data-name="Gruppe 39">
      <path id="Pfad_27" data-name="Pfad 27" d="M99.5,327.8c0,17.4,4.2,24.1,16.6,24.1,12.3,0,16.6-6.8,16.6-24.1,0-17.4-4.2-24.1-16.6-24.1-12.4-.1-16.6,6.7-16.6,24.1m12.4,0c0-12.5.4-15.9,4.1-15.9s4.1,3.4,4.1,15.9-.4,15.9-4.1,15.9-4.1-3.4-4.1-15.9" fill="#000000" fill-rule="evenodd"/>
      <path id="Pfad_28" data-name="Pfad 28" d="M136.9,351H149V332.4h3.2c2.9,0,4,1.4,4,6.6v3.1c0,2,0,6.4,1.2,8.8h12.9v-.6a3.739,3.739,0,0,1-1.4-1.4c-.6-.9-.6-4-.6-6.4v-4c0-6.2-1.8-9.9-7.6-10.4V328c5.5-.8,7.9-4.9,7.9-11,0-7.1-3.5-12.3-12.7-12.3H137V351ZM149,313.3h2.3c3.6,0,5.1,1.6,5.1,5.4,0,3.3-1.6,5.5-5.1,5.5H149Z" fill="#000000" fill-rule="evenodd"/>
      <path id="Pfad_29" data-name="Pfad 29" d="M174.2,351h12.1V332.4h3.2c2.9,0,4,1.4,4,6.6v3.1c0,2,0,6.4,1.2,8.8h12.9v-.6a3.739,3.739,0,0,1-1.4-1.4c-.6-.9-.6-4-.6-6.4v-4c0-6.2-1.8-9.9-7.6-10.4V328c5.5-.8,7.9-4.9,7.9-11,0-7.1-3.5-12.3-12.7-12.3H174.3V351Zm12.1-37.7h2.3c3.6,0,5.1,1.6,5.1,5.4,0,3.3-1.6,5.5-5.1,5.5h-2.4V313.3Z" fill="#000000" fill-rule="evenodd"/>
      <rect id="Rechteck_24" data-name="Rechteck 24" width="20.3" height="9.9" transform="translate(210.5 327.2)" fill="#000000"/>
      <path id="Pfad_30" data-name="Pfad 30" d="M235.8,351h18.3c10.1,0,14-5.7,14-13.7,0-4.8-2.5-10-8.6-10.6v-.1c5.1-1,7.3-5.5,7.3-10.4,0-7-4-11.6-12.7-11.6H235.8V351Zm12.1-37.7h2.9c2.5,0,3.8,2.2,3.8,4.8,0,2.5-1.4,4.7-3.8,4.7h-2.9Zm0,17.6h3.4c2.2,0,4.3,2,4.3,5.6,0,3.8-2.1,5.7-4.3,5.7h-3.4Z" fill="#000000" fill-rule="evenodd"/>
      <path id="Pfad_31" data-name="Pfad 31" d="M272.7,351h12.1V332.4H288c2.9,0,4,1.4,4,6.6v3.1c0,2,0,6.4,1.2,8.8H306v-.6a3.739,3.739,0,0,1-1.4-1.4c-.6-.9-.6-4-.6-6.4v-4c0-6.2-1.8-9.9-7.6-10.4V328c5.5-.8,7.9-4.9,7.9-11,0-7.1-3.5-12.3-12.7-12.3H272.7V351Zm12.1-37.7h2.3c3.6,0,5.1,1.6,5.1,5.4,0,3.3-1.6,5.5-5.1,5.5h-2.4V313.3Z" fill="#000000" fill-rule="evenodd"/>
      <path id="Pfad_32" data-name="Pfad 32" d="M310,351h28.1v-9.9h-16v-9.3h14.4v-9.4H322.1v-8h15.4v-9.8H310Z" fill="#000000"/>
      <path id="Pfad_33" data-name="Pfad 33" d="M342.1,351h11.3V316.4h.1l6.4,34.6h8.7l6.5-34.6h.1V351h11.3V304.6H369.2L364.4,332h-.2l-4.8-27.4H342.1Z" fill="#000000"/>
      <path id="Pfad_34" data-name="Pfad 34" d="M421.1,317.9c0-9.9-4.5-14.3-15-14.3-10.2,0-15.2,5.1-15.2,14.5,0,16.4,19,11.9,19,21.1,0,2.5-1.4,4.5-3.9,4.5-2.3,0-4-1.4-4-5.4v-1.1H390.3v1.6c0,9.6,5.6,13.1,15.6,13.1,10.7,0,16.4-4.4,16.4-14.3,0-17-19.8-12.5-19.8-21.6,0-2.1,1.2-4.1,3.8-4.1,2.3,0,3.4,2.3,3.4,5V318h11.4Z" fill="#000000"/>
      <path id="Pfad_35" data-name="Pfad 35" d="M426.7,351h28v-9.9h-16v-9.3h14.5v-9.4H438.7v-8h15.4v-9.8H426.7Z" fill="#000000"/>
      <rect id="Rechteck_25" data-name="Rechteck 25" width="136" height="92.8" transform="translate(489.8 281.1)" fill="#000000"/>
      <path id="Pfad_36" data-name="Pfad 36" d="M526.9,327.5a30.9,30.9,0,1,1,30.9,30.9,30.856,30.856,0,0,1-30.9-30.9M557.7,351a23.5,23.5,0,1,0-23.5-23.5A23.473,23.473,0,0,0,557.7,351" fill="#fff"/>
      <path id="Pfad_37" data-name="Pfad 37" d="M594.7,310.2a40.794,40.794,0,0,1-.1,34.6h-8.4a33.1,33.1,0,0,0,4.8-17.3,33.774,33.774,0,0,0-4.8-17.3Z" fill="#fff"/>
      <path id="Pfad_38" data-name="Pfad 38" d="M529.2,310.2a32.835,32.835,0,0,0-4.8,17.3,34.05,34.05,0,0,0,4.8,17.3h-8.4a40.794,40.794,0,0,1,.1-34.6Z" fill="#fff"/>
      <rect id="Rechteck_26" data-name="Rechteck 26" width="9.9" height="34.6" transform="translate(543.8 310.2)" fill="#fff"/>
      <path id="Pfad_39" data-name="Pfad 39" d="M572.1,344.8l-8.4-17.2,8.4-17.4h-9.9l-8.4,17.2,8.4,17.4Z" fill="#fff"/>
      <path id="Pfad_40" data-name="Pfad 40" d="M514.4,327.5a43.186,43.186,0,0,1,3.6-17.3h-7.4l-8.4,17.3,8.4,17.4H518a44.034,44.034,0,0,1-3.6-17.4" fill="#fff"/>
      <path id="Pfad_41" data-name="Pfad 41" d="M601,327.5a43.186,43.186,0,0,0-3.6-17.3h7.4l8.4,17.3-8.4,17.4h-7.4a44.034,44.034,0,0,0,3.6-17.4" fill="#fff"/>
    </g>
  </g>
</svg>
