<svg xmlns="http://www.w3.org/2000/svg" viewBox="0 0 200 73" width="60">
  <style type="text/css">
    .st0{fill:#000000;}
    .st1{fill:#000000;}
  </style>
  <path class="st0" d="M145 3.7c4.1 4.1 6.1 9.1 6.1 15 0 4.9-1.3 9.2-3.8 12.8 -4.6 6.5-6.9 13.4-6.9 20.5 0 2.2 0.2 4.3 0.7 6.4 -4-3.7-6-9.3-6-16.7 0-4.6 0.8-8.4 2.4-11.5 2.1-4 3.1-7.4 3.1-10.3 0-3.7-1.8-6.8-5.5-9.4 -2.1-1.5-3.2-3.2-3.2-5.4 0-1.5 0.6-2.8 1.7-3.7 1.1-1 2.4-1.5 3.9-1.5C140.1 0 142.5 1.2 145 3.7zM152.1 65.3c-4.1-4-6.1-9-6.1-15 0-4.9 1.2-9.1 3.6-12.7 4.5-6.5 6.7-13.2 6.7-20.3 0-2.3-0.2-4.5-0.7-6.6 4.1 3.7 6.2 9.3 6.2 16.8 0 4.5-0.8 8.2-2.3 11.2 -2.1 4-3.1 7.4-3.1 10.3 0 3.7 1.9 6.8 5.6 9.3 2.1 1.5 3.2 3.2 3.2 5.3 0 1.6-0.6 2.8-1.7 3.8 -1.1 1-2.4 1.5-4 1.5C157 69 154.5 67.8 152.1 65.3zM194.5 27.4c2.8 2.4 4.2 5.4 4.2 9.3 0 2-0.4 4-1.2 6 -0.9 2.1-2 3.7-3.6 4.8 -2 1.5-4.2 2.3-6.5 2.3 -2.3 0-4-1-5.3-3.1 -0.6-1.1-1.4-3.1-2.3-6.2 -1.1-3.5-2.2-5.4-3.6-5.6 -1.5-0.3-2.5 1.2-3.3 4.2 -0.5 2-0.7 4.1-0.7 6.2 0 0.8 0 1.6 0 2.5 0.2 1.8-0.2 3.3-1.2 4.6 -1 1.3-2.4 1.9-4.1 1.9 -3.4 0-5-2-5-6 0-2.7 0.6-5.6 1.7-8.7 1.2-3.1 2.6-5.8 4.3-8 2.3-3 4.7-4.5 7.3-4.5 1.1 0 2.2 0.3 3.3 0.9 2.4 1.3 4.2 3 5.6 5.3l2.2 4.7c1.2 2 2.4 2.9 3.7 2.9 0.5 0 1.2-0.1 2-0.4 2.2-0.6 3.3-3 3.3-7.1C195.4 31.6 195.1 29.6 194.5 27.4z"/>
  <path class="st1" d="M0 11.1h5.1v31h16v4.6H0V11.1zM50.4 11.1h5.1v20.2c0 2.7-0.2 4.8-0.6 6.2 -0.4 1.4-0.9 2.6-1.5 3.5 -0.6 0.9-1.3 1.8-2.2 2.5 -2.8 2.4-6.5 3.6-11.1 3.6 -4.6 0-8.4-1.2-11.2-3.6 -0.8-0.7-1.6-1.6-2.2-2.5 -0.6-0.9-1.1-2.1-1.5-3.4 -0.4-1.3-0.6-3.4-0.6-6.3V11.1H30v20.2c0 3.3 0.4 5.7 1.1 7 0.8 1.3 1.9 2.4 3.5 3.1 1.6 0.8 3.4 1.2 5.5 1.2 3 0 5.5-0.8 7.4-2.4 1-0.8 1.7-1.9 2.2-3 0.4-1.2 0.7-3.1 0.7-5.9V11.1zM62.5 11.1h20.2v4.5H67.6v10.9h14.6v4.6H67.6v11.1h15.6v4.5H62.5V11.1zM114.4 11.1h6.2l-14.2 17.2 15.2 18.4h-6.2L103.3 32 91 46.7h-6.2l15.3-18.4L85.9 11.1h6.2l11.2 13.6L114.4 11.1zM200 13.5c0 1.1-0.3 2.2-0.8 3.1 -0.6 1-1.3 1.7-2.3 2.3 -1 0.6-2 0.8-3.1 0.8 -1.1 0-2.2-0.3-3.1-0.8 -1-0.6-1.7-1.3-2.3-2.3 -0.6-1-0.8-2-0.8-3.1 0-0.9 0.2-1.7 0.5-2.4 0.3-0.8 0.8-1.4 1.4-2 0.6-0.6 1.3-1 2-1.3 0.8-0.3 1.6-0.5 2.4-0.5 0.8 0 1.7 0.2 2.4 0.5 0.8 0.3 1.4 0.8 2 1.3 0.6 0.6 1 1.2 1.4 2C199.8 11.8 200 12.6 200 13.5zM198.8 13.5c0-0.7-0.1-1.4-0.4-2 -0.3-0.6-0.6-1.1-1.1-1.6 -0.5-0.5-1-0.8-1.6-1.1 -0.6-0.3-1.3-0.4-1.9-0.4 -0.7 0-1.3 0.1-1.9 0.4 -0.6 0.3-1.2 0.6-1.6 1.1 -0.5 0.5-0.8 1-1.1 1.6 -0.3 0.6-0.4 1.3-0.4 2 0 0.9 0.2 1.8 0.7 2.5 0.5 0.8 1.1 1.4 1.8 1.8 0.8 0.5 1.6 0.7 2.5 0.7 0.9 0 1.8-0.2 2.5-0.7 0.8-0.5 1.4-1.1 1.8-1.8C198.6 15.2 198.8 14.4 198.8 13.5zM196.7 16.8h-2c-0.4-0.7-0.7-1.3-0.9-1.8 -0.3-0.4-0.5-0.7-0.6-0.8 -0.2-0.1-0.4-0.1-0.6-0.1v2.7h-1.7v-6.7h3c0.7 0 1.3 0.2 1.8 0.5 0.4 0.3 0.7 0.8 0.7 1.4 0 0.6-0.2 1-0.6 1.3 -0.4 0.3-0.8 0.5-1.3 0.6 0.4 0.2 0.7 0.4 0.8 0.6 0.2 0.3 0.4 0.6 0.7 1.2L196.7 16.8zM194.6 12.1c0-0.3-0.1-0.5-0.3-0.6 -0.2-0.1-0.5-0.2-0.9-0.2h-0.8v1.7h0.7c0.4 0 0.8-0.1 1-0.2C194.5 12.6 194.6 12.4 194.6 12.1zM0.1 56.7h2.3v9.9h5.3v1.9H0.1V56.7zM8.9 57.5c0-0.7 0.5-1.2 1.3-1.2 0.7 0 1.3 0.5 1.3 1.2 0 0.7-0.5 1.2-1.3 1.2C9.5 58.7 8.9 58.2 8.9 57.5zM9.1 60.5h2.2v8H9.1V60.5zM13.5 60.7l2.1-0.4v1.5c0.6-0.7 1.7-1.5 3-1.5s2.2 0.8 2.2 2.5v5.7h-2.2v-4.8c0-1.1-0.2-1.6-0.8-1.6 -0.7 0-1.5 0.7-2.1 1.3v5.1h-2.2V60.7zM26.5 60.3c2 0 3.4 1.4 3.4 3.9l-1.2 0.4 -4 0.5c0.2 1.2 1 2 2.3 2 1.3 0 2.4-1 2.4-1l0.6 1.6c0 0-1.3 1.1-3.4 1.1 -2.7 0-4.2-2-4.2-4.2C22.5 62.2 24.1 60.3 26.5 60.3zM24.7 63.8l2.8-0.4c0 0 0-1.5-1.2-1.5C25.4 61.9 24.8 62.7 24.7 63.8zM31.5 56.7h2.3v7.1c0 2.1 1.1 2.9 2.7 2.9 1.6 0 2.7-1 2.7-2.9v-7.2h2.3v7.1c0 3.2-2.2 4.9-5 4.9 -2.7 0-5-1.3-5-4.6V56.7zM43.6 60.7l2.1-0.4v1.3c0.4-0.7 1.1-1.3 2.3-1.3 2.1 0 3.4 1.8 3.4 4 0 2.3-1.4 4.5-4.1 4.5 -0.6 0-1.2-0.1-1.5-0.3v3.9l-2.2 0.4V60.7zM45.8 63.2v3.2c0 0.4 0.4 0.7 1.2 0.7 1.3 0 2.2-0.9 2.2-2.7 0-1.5-0.6-2.4-1.5-2.4C46.7 62 46 62.9 45.8 63.2zM53.1 56.7h7.4v1.9h-5.2v3h4.1v1.9h-4.1v3.1h5.3v1.9h-7.6V56.7zM64.3 64.5l-2.8-4h2.5l1.5 2.4 1.5-2.4h2.4l-2.8 4 2.8 4.1h-2.5l-1.6-2.4L64 68.5h-2.4L64.3 64.5zM70.9 60.7l2.1-0.4v1.3c0.4-0.7 1.1-1.3 2.3-1.3 2.1 0 3.4 1.8 3.4 4 0 2.3-1.4 4.5-4.1 4.5 -0.6 0-1.2-0.1-1.5-0.3v3.9l-2.2 0.4V60.7zM73.1 63.2v3.2c0 0.4 0.4 0.7 1.2 0.7 1.3 0 2.2-0.9 2.2-2.7 0-1.5-0.6-2.4-1.5-2.4C74 62 73.4 62.9 73.1 63.2zM80.5 56.2l2.2-0.4v12.7h-2.2V56.2zM88.8 60.3c2.9 0 4.3 2 4.3 4.1 0 1.9-1.2 4.4-4.4 4.4 -2.9 0-4.3-2-4.3-4.2C84.4 62.5 85.6 60.3 88.8 60.3zM88.7 67.1c1.2 0 2-1 2-2.5 0-1.3-0.6-2.7-2.1-2.7 -1.2 0-2.1 1-2.1 2.5C86.7 65.8 87.3 67.1 88.7 67.1zM94.7 60.7l2.1-0.4V62c0.3-0.6 1.1-1.7 2.4-1.7 0.4 0 0.7 0.1 0.7 0.1l-0.4 2.1c0 0-0.4-0.2-0.8-0.2 -0.9 0-1.6 0.8-1.9 1.3v4.8h-2.2V60.7zM104.6 60.3c2 0 3.4 1.4 3.4 3.9l-1.2 0.4 -4 0.5c0.2 1.2 1 2 2.3 2 1.3 0 2.4-1 2.4-1l0.6 1.6c0 0-1.3 1.1-3.4 1.1 -2.7 0-4.2-2-4.2-4.2C100.6 62.2 102.2 60.3 104.6 60.3zM102.8 63.8l2.8-0.4c0 0 0-1.5-1.2-1.5C103.4 61.9 102.9 62.7 102.8 63.8zM109.7 60.7l2.1-0.4V62c0.3-0.6 1.1-1.7 2.4-1.7 0.4 0 0.7 0.1 0.7 0.1l-0.4 2.1c0 0-0.4-0.2-0.8-0.2 -0.9 0-1.6 0.8-1.9 1.3v4.8h-2.2V60.7zM116.1 66.2c0 0 1 0.8 2.3 0.8 0.8 0 1.3-0.3 1.3-0.7 0-1.1-3.8-1.1-3.8-3.6 0-1.3 0.9-2.5 3.3-2.5 1.5 0 2.4 0.4 2.4 0.4l-0.5 1.8c0 0-0.9-0.5-1.9-0.5 -0.8 0-1.1 0.2-1.1 0.6 0 1.1 3.8 1.1 3.8 3.6 0 1.5-1.2 2.6-3.3 2.6 -1.7 0-2.8-0.7-2.8-0.7L116.1 66.2z"/>
</svg>
