<?xml version="1.0" standalone="no"?>
<!DOCTYPE svg PUBLIC "-//W3C//DTD SVG 20010904//EN"
 "http://www.w3.org/TR/2001/REC-SVG-20010904/DTD/svg10.dtd">
<svg version="1.0" xmlns="http://www.w3.org/2000/svg"
 width="1200.000000pt" height="229.000000pt" viewBox="0 0 1200.000000 229.000000"
 preserveAspectRatio="xMidYMid meet">

<g transform="translate(0.000000,229.000000) scale(0.100000,-0.100000)"
fill="#000000" stroke="none">
<path d="M10768 2275 c-387 -63 -642 -306 -664 -632 -16 -241 88 -420 313
-536 123 -64 254 -106 533 -172 251 -59 312 -76 375 -107 103 -51 139 -130 99
-214 -36 -76 -163 -115 -369 -116 -234 -1 -419 39 -728 159 -64 25 -119 44
-121 42 -8 -8 -158 -420 -155 -423 23 -20 352 -147 464 -179 424 -121 852
-111 1130 27 240 119 355 303 355 566 0 172 -40 276 -149 392 -154 165 -292
224 -811 348 -277 66 -369 115 -385 204 -8 43 -1 68 32 106 57 68 172 100 361
100 196 0 395 -48 601 -146 52 -24 98 -41 101 -37 9 11 160 407 160 420 0 19
-299 123 -455 158 -217 48 -528 66 -687 40z"/>
<path d="M7840 1562 c0 -401 4 -701 10 -752 34 -273 145 -492 313 -617 185
-137 463 -205 777 -190 561 27 860 281 929 790 7 49 11 333 11 758 l0 679
-264 0 -265 0 -3 -667 c-4 -634 -5 -672 -25 -739 -56 -195 -182 -307 -381
-336 -223 -33 -424 62 -507 238 -53 112 -55 135 -55 847 l0 657 -270 0 -270 0
0 -668z"/>
<path d="M614 1273 c-262 -522 -507 -1008 -545 -1081 l-69 -132 327 2 326 3
74 160 c41 88 79 165 85 172 8 10 93 13 375 13 207 0 363 4 361 9 -1 5 -52
110 -112 235 l-109 225 -147 3 -147 3 138 294 138 294 256 -519 c141 -285 297
-603 347 -706 l91 -188 324 0 c197 0 323 4 321 9 -1 5 -255 491 -563 1080
l-560 1070 -217 1 -217 0 -477 -947z"/>
<path d="M2770 1140 l0 -1080 270 0 270 0 0 1080 0 1080 -270 0 -270 0 0
-1080z"/>
<path d="M3540 1136 l0 -1086 255 0 255 0 0 855 0 855 348 0 c399 0 426 -4
492 -70 91 -91 93 -275 3 -362 -71 -69 -87 -72 -381 -76 -195 -3 -262 -7 -259
-15 3 -7 153 -275 334 -597 l329 -585 268 -3 268 -2 -28 47 c-406 688 -433
738 -411 747 245 97 384 240 444 458 28 100 25 320 -5 418 -77 248 -263 409
-547 473 -84 19 -130 21 -727 24 l-638 4 0 -1085z"/>
<path d="M5680 1140 l0 -1080 708 0 c667 0 713 1 784 19 449 115 652 626 380
954 -21 27 -63 66 -93 89 -30 22 -56 42 -58 44 -2 2 19 28 48 59 98 104 138
234 128 419 -6 124 -31 201 -99 302 -83 124 -215 216 -364 254 -73 19 -113 20
-756 20 l-678 0 0 -1080z m1315 619 c140 -38 187 -188 92 -296 -55 -63 -55
-63 -492 -63 l-395 0 0 185 0 185 378 0 c241 0 391 -4 417 -11z m42 -830 c56
-21 102 -61 128 -112 42 -85 28 -165 -41 -234 -71 -70 -89 -73 -536 -73 l-388
0 0 215 0 215 404 0 c260 0 415 -4 433 -11z"/>
</g>
</svg>
