<svg version="1.1" viewBox="0.0 0.0 1200.0 410.0" fill="none" stroke="none" stroke-linecap="square" stroke-miterlimit="10" xmlns:xlink="http://www.w3.org/1999/xlink" xmlns="http://www.w3.org/2000/svg"><clipPath id="p.0"><path d="m0 0l1200.0 0l0 410.0l-1200.0 0l0 -410.0z" clip-rule="nonzero"/></clipPath><g clip-path="url(#p.0)"><path fill="#000000" fill-opacity="0.0" d="m0 0l1200.0 0l0 410.0l-1200.0 0z" fill-rule="evenodd"/><path fill="#5368df" d="m0.22191076 204.9556l0 0l0 0c0 -54.354767 21.592346 -106.48329 60.026966 -144.91791c38.434616 -38.434624 90.56315 -60.026966 144.91791 -60.026966l1029.6378 0c0.001953125 0 0.0034179688 0.0015292829 0.0034179688 0.0034157485l-0.0034179688 409.88635l0 0c0 0.0018920898 -0.0014648438 0.0034179688 -0.0034179688 0.0034179688l-1029.6344 -0.0034179688l0 0c-113.187935 0 -204.94489 -91.75696 -204.94489 -204.94489z" fill-rule="evenodd"/></g></svg>