<svg version="1.1" viewBox="0.0 0.0 953.7034120734908 637.2388451443569" fill="none" stroke="none" stroke-linecap="square" stroke-miterlimit="10" xmlns:xlink="http://www.w3.org/1999/xlink" xmlns="http://www.w3.org/2000/svg">
    <clipPath id="p.0">
        <path d="m0 0l953.7034 0l0 637.23883l-953.7034 0l0 -637.23883z" clip-rule="nonzero" />
    </clipPath>
    <g clip-path="url(#p.0)">
        <path fill="#000000" fill-opacity="0.0" d="m0 0l953.7034 0l0 637.23883l-953.7034 0z" fill-rule="evenodd" />
        <path fill="#5368df" d="m0 319.15222l0 0l0 0c0 -84.64372 33.624596 -165.82068 93.47675 -225.67285c59.852165 -59.852158 141.02911 -93.47675 225.67285 -93.47675l640.8504 0c0.0029296875 0 0.0053100586 0.0023814691 0.0053100586 0.0053191604l-0.0053100586 638.2939l0 0c0 0.0029296875 -0.002380371 0.0053100586 -0.0053100586 0.0053100586l-640.8451 -0.0053100586l0 0c-176.26144 0 -319.1496 -142.88812 -319.1496 -319.1496z" fill-rule="evenodd" />
    </g>
</svg>